<?xml version="1.0" standalone="no"?>
<!DOCTYPE svg PUBLIC "-//W3C//DTD SVG 20010904//EN"
 "http://www.w3.org/TR/2001/REC-SVG-20010904/DTD/svg10.dtd">
<svg version="1.0" xmlns="http://www.w3.org/2000/svg"
 width="848.000000pt" height="848.000000pt" viewBox="0 0 848.000000 848.000000"
 preserveAspectRatio="xMidYMid meet">
<metadata>
Created by potrace 1.14, written by Peter Selinger 2001-2017
</metadata>
<g transform="translate(0.000000,848.000000) scale(0.100000,-0.100000)"
fill="#000000" stroke="none">
<path d="M4229 7946 c-2 -2 -20 -6 -39 -9 -45 -6 -83 -21 -111 -44 -39 -31
-79 -77 -79 -90 0 -7 -4 -13 -10 -13 -5 0 -10 -4 -10 -9 0 -8 -80 -150 -119
-211 -8 -14 -16 -28 -16 -32 0 -4 -6 -13 -12 -20 -7 -6 -13 -18 -13 -25 0 -7
-3 -13 -7 -13 -5 0 -13 -10 -19 -23 -18 -38 -76 -141 -95 -169 -11 -14 -19
-28 -19 -31 0 -3 -52 -94 -115 -202 -63 -109 -115 -202 -115 -207 0 -9 36 -78
75 -143 14 -22 45 -76 70 -120 25 -44 50 -87 55 -95 33 -52 100 -173 100 -181
0 -5 4 -9 8 -9 4 0 13 -12 20 -27 6 -16 22 -46 36 -68 60 -101 77 -132 88
-157 7 -16 16 -28 20 -28 4 0 8 -5 8 -10 0 -6 11 -27 23 -48 13 -20 35 -57 49
-82 27 -48 118 -205 176 -305 19 -33 46 -80 60 -105 14 -25 45 -78 69 -118 24
-41 43 -78 43 -83 0 -5 5 -9 10 -9 6 0 10 -5 10 -10 0 -6 18 -40 40 -76 22
-36 40 -68 40 -69 0 -2 33 -60 74 -129 41 -69 72 -126 68 -126 -4 0 -2 -4 4
-8 5 -4 39 -56 73 -117 61 -106 78 -136 120 -207 10 -18 41 -71 67 -118 27
-47 54 -94 61 -105 7 -11 15 -27 20 -35 4 -8 26 -47 50 -86 24 -39 43 -77 43
-83 0 -6 4 -11 9 -11 5 0 11 -8 14 -17 6 -18 37 -73 47 -83 3 -3 14 -23 26
-45 24 -45 33 -62 134 -235 87 -148 103 -178 143 -250 16 -30 36 -62 43 -70 7
-8 18 -26 24 -40 6 -14 22 -43 35 -65 14 -22 28 -47 32 -55 4 -8 32 -58 63
-110 31 -52 68 -115 82 -140 14 -25 58 -101 97 -168 39 -68 71 -128 71 -133 0
-5 4 -9 9 -9 5 0 15 -16 22 -35 7 -19 17 -35 21 -35 4 0 8 -5 8 -10 0 -6 16
-36 35 -66 19 -30 35 -56 35 -58 0 -3 29 -54 65 -115 36 -60 65 -113 65 -117
0 -4 6 -15 14 -23 7 -9 28 -43 46 -76 17 -33 35 -64 40 -70 4 -5 19 -30 32
-55 14 -25 67 -116 117 -204 50 -87 91 -162 91 -166 0 -5 4 -10 8 -12 4 -1 23
-30 41 -63 40 -70 46 -81 141 -245 134 -231 344 -595 357 -620 8 -14 25 -43
39 -65 14 -22 27 -48 31 -58 5 -16 40 -17 597 -16 663 1 630 -3 712 75 78 75
109 192 77 287 -12 33 -138 263 -153 277 -3 3 -14 23 -26 45 -12 22 -44 80
-72 129 -29 49 -52 93 -52 97 0 5 -4 9 -10 9 -5 0 -10 4 -10 9 0 7 -18 40 -60
111 -13 22 -75 129 -101 175 -78 137 -168 294 -219 380 -10 17 -55 95 -100
175 -46 80 -86 147 -89 150 -6 5 -18 27 -72 130 -13 25 -27 47 -30 50 -4 3
-16 25 -29 49 -12 25 -29 51 -36 59 -8 7 -14 17 -14 22 0 6 -104 191 -141 250
-5 8 -15 26 -21 40 -7 14 -15 27 -18 30 -3 3 -11 16 -19 30 -83 145 -318 552
-333 575 -10 17 -25 44 -33 60 -9 17 -24 44 -34 60 -30 51 -128 219 -269 465
-74 129 -143 249 -153 265 -10 17 -37 64 -61 105 -23 41 -47 83 -53 92 -5 9
-20 35 -32 57 -40 72 -48 86 -53 91 -10 10 -90 153 -90 161 0 5 -4 9 -9 9 -5
0 -12 11 -15 24 -3 14 -12 31 -19 38 -12 13 -51 81 -72 125 -5 13 -13 23 -17
23 -5 0 -8 4 -8 9 0 11 -78 150 -97 172 -7 8 -13 23 -13 31 0 9 -4 18 -8 20
-4 2 -38 55 -74 118 -37 63 -76 131 -87 150 -11 19 -24 42 -28 50 -4 8 -23 42
-43 75 -20 33 -49 82 -64 110 -16 27 -61 106 -101 175 -270 465 -357 615 -406
705 -12 22 -34 59 -50 81 -16 23 -26 44 -23 46 2 3 -2 11 -11 18 -8 7 -15 16
-15 20 0 4 -43 80 -95 169 -52 88 -111 191 -131 228 -20 38 -43 75 -50 84 -8
8 -14 18 -14 21 0 10 -146 256 -171 287 -29 38 -98 78 -147 87 -20 3 -44 8
-53 10 -8 2 -17 2 -20 0z"/>
<path d="M3175 6383 c-21 -38 -48 -86 -60 -108 -12 -22 -38 -67 -57 -100 -67
-116 -221 -380 -241 -415 -31 -54 -51 -89 -68 -122 l-16 -31 79 -134 c43 -74
78 -138 78 -143 0 -6 5 -10 10 -10 6 0 10 -6 10 -14 0 -8 7 -22 16 -30 8 -9
12 -16 7 -16 -4 0 -3 -4 2 -8 10 -7 23 -29 62 -102 10 -19 20 -37 23 -40 6 -6
119 -200 162 -280 17 -30 38 -66 48 -80 9 -14 23 -40 31 -57 8 -18 16 -33 19
-33 3 0 21 -30 40 -67 19 -38 37 -70 40 -73 6 -5 151 -254 195 -335 15 -27 40
-70 55 -95 24 -39 229 -394 280 -485 10 -18 24 -43 32 -56 7 -13 15 -26 18
-29 6 -6 49 -84 64 -117 6 -13 14 -23 19 -23 4 0 7 -9 7 -20 0 -11 4 -20 8
-20 13 0 8 -34 -9 -58 -15 -21 -89 -76 -89 -66 0 3 -12 -3 -27 -14 -59 -42
-139 -77 -166 -74 -20 3 -36 16 -60 55 -18 29 -36 59 -40 67 -4 8 -18 33 -31
55 -23 38 -69 115 -134 230 -32 56 -238 412 -284 490 -16 28 -34 62 -41 78 -6
15 -15 27 -19 27 -4 0 -8 7 -8 15 0 8 -4 15 -10 15 -5 0 -10 5 -10 10 0 6 -25
54 -57 108 -31 53 -63 110 -72 127 -9 16 -21 35 -28 42 -6 7 -15 23 -19 36 -3
12 -12 29 -19 37 -7 8 -24 36 -39 63 -14 26 -38 68 -52 95 -15 26 -32 54 -40
62 -7 8 -12 17 -11 20 0 3 -6 16 -15 30 -22 36 -121 206 -153 265 -15 28 -36
62 -46 77 -11 14 -19 31 -19 37 0 7 -9 21 -20 33 -17 19 -20 19 -20 5 0 -9 -3
-17 -7 -17 -5 0 -21 -26 -38 -58 -16 -31 -35 -64 -41 -72 -11 -14 -40 -66 -80
-140 -11 -19 -22 -36 -26 -38 -5 -2 -8 -7 -8 -12 0 -5 -28 -55 -61 -112 -34
-57 -72 -121 -84 -143 -12 -22 -37 -67 -55 -100 -18 -33 -37 -61 -42 -63 -4
-2 -8 -8 -8 -12 0 -5 -28 -58 -63 -118 -35 -60 -67 -115 -70 -123 -4 -8 -17
-30 -28 -49 -23 -38 -162 -277 -189 -325 -9 -16 -37 -64 -61 -105 -24 -41 -55
-96 -69 -122 -14 -27 -28 -48 -32 -48 -5 0 -8 -5 -8 -10 0 -8 -220 -397 -260
-460 -5 -8 -28 -49 -52 -90 -23 -41 -48 -84 -55 -95 -7 -11 -17 -29 -22 -40
-6 -11 -22 -38 -35 -60 -14 -22 -37 -64 -53 -92 -15 -29 -31 -53 -35 -53 -4 0
-8 -5 -8 -10 0 -9 -219 -396 -240 -425 -6 -8 -30 -51 -84 -150 -6 -11 -13 -22
-16 -25 -3 -3 -16 -25 -29 -50 -13 -25 -30 -52 -37 -61 -8 -8 -14 -18 -14 -22
0 -3 -29 -56 -65 -118 -36 -61 -65 -116 -65 -120 0 -5 -3 -9 -7 -9 -5 0 -13
-10 -19 -23 -33 -65 -49 -93 -61 -105 -7 -7 -13 -18 -13 -23 0 -5 -17 -37 -38
-71 -21 -35 -42 -70 -46 -78 -4 -8 -12 -24 -19 -35 -7 -11 -47 -81 -90 -155
-80 -138 -91 -157 -116 -200 -9 -14 -16 -29 -18 -35 -1 -5 -6 -27 -11 -47 -24
-92 6 -187 80 -260 36 -35 54 -46 108 -67 8 -3 1457 -7 3218 -8 l3204 -3 -20
32 c-11 18 -30 51 -42 73 -12 22 -46 81 -75 130 -60 102 -84 145 -111 195 -11
19 -21 37 -24 40 -3 3 -11 16 -18 29 -8 13 -22 38 -31 55 -10 17 -75 129 -144
249 -70 120 -138 239 -152 264 -37 66 -194 335 -205 353 -6 8 -13 22 -17 30
-4 8 -22 38 -40 67 -18 29 -33 54 -33 57 0 3 -20 40 -45 82 -25 41 -45 80 -45
85 0 5 -3 9 -8 9 -4 0 -13 15 -21 32 -8 18 -17 35 -21 38 -4 3 -24 36 -44 74
-21 38 -51 90 -67 116 -16 26 -29 52 -29 59 0 6 -4 11 -10 11 -5 0 -10 4 -10
9 0 7 -30 62 -60 111 -5 8 -31 53 -58 100 -27 47 -76 130 -108 185 -32 55 -59
102 -59 105 0 3 -8 16 -17 30 -16 26 -111 190 -156 270 -13 25 -28 50 -32 55
-5 6 -23 37 -40 70 -18 33 -38 67 -44 75 -7 8 -18 26 -24 40 -7 14 -24 46 -40
72 -83 141 -147 255 -150 266 -2 6 -8 12 -13 12 -6 0 -8 4 -4 9 3 5 1 12 -4
15 -7 5 -191 319 -230 394 -8 15 -17 29 -20 32 -3 3 -16 24 -28 48 -13 23 -33
61 -45 85 -13 23 -26 44 -29 47 -4 3 -17 23 -29 45 -102 182 -206 361 -212
363 -5 2 -8 8 -8 12 0 8 -114 212 -140 250 -6 8 -14 24 -20 35 -5 11 -21 38
-34 60 -14 22 -37 63 -52 90 -14 28 -35 62 -45 76 -10 15 -23 37 -29 50 -6 13
-19 38 -30 54 -10 17 -27 46 -37 65 -9 19 -19 37 -22 40 -4 3 -12 16 -19 29
-33 57 -55 96 -147 256 -55 94 -110 190 -123 215 -13 25 -27 47 -31 50 -4 3
-18 26 -31 53 -13 26 -26 47 -30 47 -3 0 -23 -30 -45 -67z"/>
</g>
</svg>
